<svg width="0" height="0" class="hidden">
  <symbol fill="none" xmlns="http://www.w3.org/2000/svg" viewBox="0 0 56 58" id="card-text (5)">
    <path d="M10.072 52.752V56.4h-1.2l-.24-2.4H2.28l-.24 2.4H.84v-3.648h.752c.288-.277.507-.63.656-1.056.16-.427.293-.992.4-1.696.117-.715.293-1.99.528-3.824l.4-3.2h5.6v9.776h.896zm-2.416-8.528H4.904L4.68 46.24c-.192 1.643-.352 2.843-.48 3.6-.117.757-.277 1.36-.48 1.808a2.722 2.722 0 01-.848 1.104h4.784v-8.528zM18.861 54h-1.456v-3.808c0-.64.022-1.248.064-1.824.043-.576.08-.955.112-1.136L14.045 54h-1.744v-8.432h1.456v3.808c0 .565-.021 1.152-.064 1.76-.042.597-.074.981-.096 1.152l3.488-6.72h1.776V54zm5.114-8.624c.533 0 1.03.09 1.488.272.47.17.843.427 1.12.768.288.341.432.752.432 1.232 0 .47-.139.853-.416 1.152-.267.299-.693.528-1.28.688.704.117 1.237.336 1.6.656s.544.779.544 1.376c0 .875-.341 1.541-1.024 2-.672.448-1.53.672-2.576.672-1.27 0-2.352-.352-3.248-1.056l.768-.912a4.38 4.38 0 001.12.592 4.14 4.14 0 001.312.192c1.376 0 2.064-.501 2.064-1.504 0-.49-.197-.832-.592-1.024-.384-.203-.923-.304-1.616-.304h-1.12l.096-1.152h.864c.597 0 1.077-.107 1.44-.32.363-.213.544-.544.544-.992 0-.416-.155-.715-.464-.896-.31-.192-.715-.288-1.216-.288-.437 0-.827.059-1.168.176a3.91 3.91 0 00-1.008.512l-.704-.88c.427-.32.885-.56 1.376-.72.49-.16 1.045-.24 1.664-.24zm11.444 6.656c0 .341.058.597.176.768.117.16.293.283.528.368l-.336 1.024c-.438-.053-.79-.176-1.056-.368-.267-.192-.464-.49-.592-.896-.566.843-1.403 1.264-2.512 1.264-.832 0-1.488-.235-1.968-.704-.48-.47-.72-1.083-.72-1.84 0-.896.32-1.584.96-2.064.65-.48 1.568-.72 2.752-.72h1.296v-.624c0-.597-.144-1.024-.432-1.28-.288-.256-.73-.384-1.328-.384-.619 0-1.376.15-2.272.448l-.368-1.072c1.045-.384 2.016-.576 2.912-.576.992 0 1.733.245 2.224.736.49.48.736 1.168.736 2.064v3.856zm-3.456 1.056c.842 0 1.504-.437 1.984-1.312V49.84h-1.104c-1.558 0-2.336.576-2.336 1.728 0 .501.122.88.368 1.136.245.256.608.384 1.088.384zM45.002 54h-1.456v-3.808c0-.64.021-1.248.064-1.824.043-.576.08-.955.112-1.136L40.186 54h-1.744v-8.432h1.456v3.808c0 .565-.022 1.152-.064 1.76a30.58 30.58 0 01-.096 1.152l3.488-6.72h1.776V54zM41.69 43.712c-.65 0-1.2-.165-1.648-.496-.438-.341-.688-.8-.752-1.376l.976-.208c.107.341.272.587.496.736.234.15.544.224.928.224s.699-.075.944-.224c.245-.16.421-.405.528-.736l.976.208a1.907 1.907 0 01-.784 1.376c-.448.33-1.003.496-1.664.496zM53.012 54v-3.712h-3.504V54h-1.472v-8.432h1.472v3.536h3.504v-3.536h1.472V54h-1.472zM35 0H21a5.006 5.006 0 00-5 5v5a7.009 7.009 0 007 7h2v4a3 3 0 006 0v-4h2a7.009 7.009 0 007-7V5a5.006 5.006 0 00-5-5zM18 5a3 3 0 013-3h5v1a1 1 0 002 0V2h2v3a1 1 0 002 0V2h2v5a1 1 0 002 0V2.184A3 3 0 0138 5v5H18V5zm15 10h-3a1 1 0 00-1 1v5a1 1 0 01-2 0v-5a1 1 0 00-1-1h-3a5 5 0 01-4.576-3h19.152A5 5 0 0133 15z" fill="#111238"></path>
  </symbol>
  <symbol fill="none" xmlns="http://www.w3.org/2000/svg" viewBox="0 0 166 128" id="card (5)">
    <rect width="166" height="128" rx="10" fill="#F2F3F6"></rect>
    <path d="M64.072 87.752V91.4h-1.2l-.24-2.4H56.28l-.24 2.4h-1.2v-3.648h.752c.288-.277.507-.63.656-1.056.16-.427.293-.992.4-1.696.117-.715.293-1.99.528-3.824l.4-3.2h5.6v9.776h.896zm-2.416-8.528h-2.752l-.224 2.016c-.192 1.643-.352 2.843-.48 3.6-.117.757-.277 1.36-.48 1.808a2.723 2.723 0 01-.848 1.104h4.784v-8.528zM72.861 89h-1.456v-3.808c0-.64.022-1.248.064-1.824.043-.576.08-.955.112-1.136L68.045 89h-1.744v-8.432h1.456v3.808c0 .565-.021 1.152-.064 1.76-.042.597-.074.981-.096 1.152l3.488-6.72h1.776V89zm5.114-8.624c.533 0 1.03.09 1.488.272.47.17.843.427 1.12.768.288.341.432.752.432 1.232 0 .47-.139.853-.416 1.152-.267.299-.693.528-1.28.688.704.117 1.237.336 1.6.656s.544.779.544 1.376c0 .875-.341 1.541-1.024 2-.672.448-1.53.672-2.576.672-1.27 0-2.352-.352-3.248-1.056l.768-.912a4.38 4.38 0 001.12.592 4.14 4.14 0 001.312.192c1.376 0 2.064-.501 2.064-1.504 0-.49-.197-.832-.592-1.024-.384-.203-.923-.304-1.616-.304h-1.12l.096-1.152h.864c.597 0 1.077-.107 1.44-.32.363-.213.544-.544.544-.992 0-.416-.155-.715-.464-.896-.31-.192-.715-.288-1.216-.288-.437 0-.827.059-1.168.176a3.91 3.91 0 00-1.008.512l-.704-.88c.427-.32.885-.56 1.376-.72.49-.16 1.045-.24 1.664-.24zm11.444 6.656c0 .341.058.597.176.768.117.16.293.283.528.368l-.336 1.024c-.438-.053-.79-.176-1.056-.368-.267-.192-.464-.49-.592-.896-.566.843-1.403 1.264-2.512 1.264-.832 0-1.488-.235-1.968-.704-.48-.47-.72-1.083-.72-1.84 0-.896.32-1.584.96-2.064.65-.48 1.568-.72 2.752-.72h1.296v-.624c0-.597-.144-1.024-.432-1.28-.288-.256-.73-.384-1.328-.384-.619 0-1.376.15-2.272.448l-.368-1.072c1.045-.384 2.016-.576 2.912-.576.992 0 1.733.245 2.224.736.49.48.736 1.168.736 2.064v3.856zm-3.456 1.056c.842 0 1.504-.437 1.984-1.312V84.84h-1.104c-1.558 0-2.336.576-2.336 1.728 0 .501.122.88.368 1.136.245.256.608.384 1.088.384zM99.002 89h-1.456v-3.808c0-.64.021-1.248.064-1.824.043-.576.08-.955.112-1.136L94.186 89h-1.744v-8.432h1.456v3.808c0 .565-.022 1.152-.064 1.76a30.58 30.58 0 01-.096 1.152l3.488-6.72h1.776V89zM95.69 78.712c-.65 0-1.2-.165-1.648-.496-.438-.341-.688-.8-.752-1.376l.976-.208c.106.341.272.587.496.736.234.15.544.224.928.224s.698-.075.944-.224c.245-.16.421-.405.528-.736l.976.208a1.907 1.907 0 01-.784 1.376c-.448.33-1.003.496-1.664.496zM107.012 89v-3.712h-3.504V89h-1.472v-8.432h1.472v3.536h3.504v-3.536h1.472V89h-1.472zM89 35H75a5.006 5.006 0 00-5 5v5a7.009 7.009 0 007 7h2v4a3 3 0 006 0v-4h2a7.009 7.009 0 007-7v-5a5.006 5.006 0 00-5-5zm-17 5a3 3 0 013-3h5v1a1 1 0 002 0v-1h2v3a1 1 0 002 0v-3h2v5a1 1 0 002 0v-4.816A3 3 0 0192 40v5H72v-5zm15 10h-3a1 1 0 00-1 1v5a1 1 0 01-2 0v-5a1 1 0 00-1-1h-3a5 5 0 01-4.576-3h19.152A5 5 0 0187 50z" fill="#111238"></path>
  </symbol>
  <symbol fill="none" xmlns="http://www.w3.org/2000/svg" viewBox="0 0 86 58" id="card-text (4)">
    <path d="M50.636 0H35.364a5.461 5.461 0 00-5.455 5.455v13.09A5.461 5.461 0 0035.364 24h15.272a5.461 5.461 0 005.455-5.454V5.455A5.461 5.461 0 0050.636 0zM35.364 2.182h15.272a3.273 3.273 0 013.273 3.273v1.09H32.091v-1.09a3.273 3.273 0 013.273-3.273zm15.272 19.636H35.364a3.272 3.272 0 01-3.273-3.273V8.728h21.818v9.819a3.272 3.272 0 01-3.273 3.272zm0-8.727a1.091 1.091 0 01-1.09 1.09H36.454a1.09 1.09 0 110-2.181h13.09a1.09 1.09 0 011.091 1.09zm-4.363 4.364a1.09 1.09 0 01-1.091 1.09h-8.727a1.09 1.09 0 010-2.181h8.727a1.091 1.091 0 011.09 1.09zM33.182 4.364a1.09 1.09 0 112.181 0 1.09 1.09 0 01-2.181 0zm3.273 0a1.09 1.09 0 112.181 0 1.09 1.09 0 01-2.181 0zm3.272 0a1.091 1.091 0 112.183 0 1.091 1.091 0 01-2.183 0zM4.816 42.976c1.366 0 2.422.288 3.168.864.747.565 1.12 1.413 1.12 2.544 0 1.205-.389 2.101-1.168 2.688-.778.587-1.813.88-3.104.88H3.44V54H1.92V42.976h2.896zm-.048 5.776c.886 0 1.558-.17 2.016-.512.47-.341.704-.955.704-1.84 0-.79-.234-1.36-.704-1.712-.458-.352-1.12-.528-1.984-.528H3.44v4.592h1.328zm11.174 3.28c0 .341.059.597.176.768.117.16.294.283.528.368l-.336 1.024c-.437-.053-.79-.176-1.056-.368s-.464-.49-.592-.896c-.565.843-1.403 1.264-2.512 1.264-.832 0-1.488-.235-1.968-.704-.48-.47-.72-1.083-.72-1.84 0-.896.32-1.584.96-2.064.65-.48 1.568-.72 2.752-.72h1.296v-.624c0-.597-.144-1.024-.432-1.28-.288-.256-.73-.384-1.328-.384-.619 0-1.376.15-2.272.448l-.368-1.072c1.046-.384 2.016-.576 2.912-.576.992 0 1.734.245 2.224.736.49.48.736 1.168.736 2.064v3.856zm-3.456 1.056c.843 0 1.504-.437 1.984-1.312V49.84h-1.104c-1.557 0-2.336.576-2.336 1.728 0 .501.123.88.368 1.136.245.256.608.384 1.088.384zm8.56-7.712c.533 0 1.029.09 1.487.272.47.17.843.427 1.12.768.288.341.432.752.432 1.232 0 .47-.138.853-.416 1.152-.266.299-.693.528-1.28.688.704.117 1.238.336 1.6.656.363.32.544.779.544 1.376 0 .875-.341 1.541-1.024 2-.672.448-1.53.672-2.576.672-1.269 0-2.352-.352-3.248-1.056l.768-.912a4.38 4.38 0 001.12.592c.384.128.822.192 1.312.192 1.376 0 2.064-.501 2.064-1.504 0-.49-.197-.832-.592-1.024-.384-.203-.922-.304-1.616-.304h-1.12l.096-1.152h.864c.598 0 1.078-.107 1.44-.32.363-.213.544-.544.544-.992 0-.416-.154-.715-.464-.896-.309-.192-.714-.288-1.216-.288-.437 0-.826.059-1.168.176a3.91 3.91 0 00-1.008.512l-.704-.88c.427-.32.886-.56 1.376-.72a5.36 5.36 0 011.664-.24zm9.791 0c1.078 0 1.867.384 2.368 1.152.502.768.752 1.85.752 3.248 0 1.323-.288 2.39-.864 3.2-.576.81-1.392 1.216-2.448 1.216-.938 0-1.674-.32-2.208-.96v4l-1.472.176v-11.84h1.264l.112 1.136c.31-.427.683-.752 1.12-.976a2.87 2.87 0 011.376-.352zm-.544 7.616c1.387 0 2.08-1.072 2.08-3.216 0-2.155-.634-3.232-1.904-3.232-.416 0-.794.123-1.136.368-.341.245-.64.56-.896.944v4.112c.214.33.48.587.8.768.32.17.672.256 1.056.256zm11.696-.96c0 .341.059.597.176.768.117.16.293.283.528.368l-.336 1.024c-.437-.053-.79-.176-1.056-.368-.267-.192-.464-.49-.592-.896-.565.843-1.403 1.264-2.512 1.264-.832 0-1.488-.235-1.968-.704-.48-.47-.72-1.083-.72-1.84 0-.896.32-1.584.96-2.064.65-.48 1.568-.72 2.752-.72h1.296v-.624c0-.597-.144-1.024-.432-1.28-.288-.256-.73-.384-1.328-.384-.619 0-1.376.15-2.272.448l-.368-1.072c1.045-.384 2.016-.576 2.912-.576.992 0 1.733.245 2.224.736.49.48.736 1.168.736 2.064v3.856zm-3.456 1.056c.843 0 1.504-.437 1.984-1.312V49.84h-1.104c-1.557 0-2.336.576-2.336 1.728 0 .501.123.88.368 1.136.245.256.608.384 1.088.384zm10.16-6.976c.96 0 1.722.347 2.287 1.04.576.693.864 1.637.864 2.832 0 1.333-.336 2.368-1.008 3.104-.672.736-1.573 1.104-2.704 1.104-1.13 0-2.037-.4-2.72-1.2-.672-.8-1.008-2.01-1.008-3.632 0-1.227.09-2.23.272-3.008.192-.79.517-1.435.976-1.936.47-.512 1.126-.912 1.968-1.2.63-.213 1.13-.405 1.504-.576.384-.17.773-.39 1.168-.656l.624 1.104c-.373.235-.762.453-1.168.656-.395.192-.87.379-1.424.56-.533.181-.954.39-1.264.624-.31.224-.56.555-.752.992-.181.427-.304 1.013-.368 1.76.299-.49.683-.875 1.152-1.152a3.085 3.085 0 011.6-.416zm-.56 6.896c.65 0 1.167-.219 1.551-.656.384-.448.576-1.221.576-2.32 0-.97-.16-1.67-.48-2.096-.31-.427-.763-.64-1.36-.64-.49 0-.95.133-1.376.4-.426.256-.778.65-1.056 1.184v1.024c0 .992.187 1.76.56 2.304.384.533.912.8 1.584.8zm9.313-7.632c1.184 0 2.101.395 2.752 1.184.661.79.992 1.861.992 3.216 0 .875-.15 1.648-.448 2.32-.299.661-.73 1.179-1.296 1.552-.566.363-1.237.544-2.016.544-1.184 0-2.107-.395-2.768-1.184-.661-.79-.992-1.861-.992-3.216 0-.875.15-1.643.448-2.304.298-.672.73-1.19 1.296-1.552.565-.373 1.242-.56 2.032-.56zm0 1.184c-1.462 0-2.192 1.077-2.192 3.232 0 2.144.725 3.216 2.176 3.216 1.45 0 2.176-1.077 2.176-3.232 0-2.144-.72-3.216-2.16-3.216zm11.465-.992l-.176 1.2h-2.704V54H64.56v-7.232h-2.784v-1.2h7.136zm7.843 0l-2.56 3.904L77.058 54h-1.744l-2.336-3.888h-1.072V54h-1.472v-8.432h1.472v3.392h1.104l2.128-3.392h1.616zm7.423 6.464c0 .341.058.597.176.768.117.16.293.283.528.368l-.336 1.024c-.438-.053-.79-.176-1.056-.368-.267-.192-.464-.49-.592-.896-.566.843-1.403 1.264-2.512 1.264-.832 0-1.488-.235-1.968-.704-.48-.47-.72-1.083-.72-1.84 0-.896.32-1.584.96-2.064.65-.48 1.568-.72 2.752-.72h1.296v-.624c0-.597-.144-1.024-.432-1.28-.288-.256-.731-.384-1.328-.384-.62 0-1.376.15-2.272.448l-.368-1.072c1.045-.384 2.016-.576 2.912-.576.992 0 1.733.245 2.224.736.49.48.736 1.168.736 2.064v3.856zm-3.456 1.056c.842 0 1.504-.437 1.984-1.312V49.84H81.6c-1.558 0-2.336.576-2.336 1.728 0 .501.122.88.368 1.136.245.256.608.384 1.088.384z" fill="#fff"></path>
  </symbol>
  <symbol fill="none" xmlns="http://www.w3.org/2000/svg" viewBox="0 0 166 128" id="card (4)">
    <rect width="166" height="128" rx="10" fill="#1A75E8"></rect>
    <path d="M90.636 35H75.364a5.461 5.461 0 00-5.455 5.455v13.09A5.461 5.461 0 0075.364 59h15.272a5.461 5.461 0 005.455-5.455v-13.09A5.461 5.461 0 0090.636 35zm-15.272 2.182h15.272a3.272 3.272 0 013.273 3.273v1.09H72.091v-1.09a3.272 3.272 0 013.273-3.273zm15.272 19.636H75.364a3.272 3.272 0 01-3.273-3.273v-9.818h21.818v9.819a3.272 3.272 0 01-3.273 3.272zm0-8.727a1.091 1.091 0 01-1.09 1.09H76.454a1.09 1.09 0 110-2.181h13.092a1.09 1.09 0 011.09 1.09zm-4.363 4.364a1.09 1.09 0 01-1.091 1.09h-8.728a1.09 1.09 0 010-2.181h8.728a1.091 1.091 0 011.09 1.09zM73.182 39.364a1.09 1.09 0 112.181 0 1.09 1.09 0 01-2.181 0zm3.272 0a1.09 1.09 0 112.182 0 1.09 1.09 0 01-2.181 0zm3.273 0a1.091 1.091 0 112.183 0 1.091 1.091 0 01-2.183 0zM44.816 77.976c1.366 0 2.422.288 3.168.864.747.565 1.12 1.413 1.12 2.544 0 1.205-.389 2.101-1.168 2.688-.778.587-1.813.88-3.104.88H43.44V89h-1.52V77.976h2.896zm-.048 5.776c.886 0 1.558-.17 2.016-.512.47-.341.704-.955.704-1.84 0-.79-.234-1.36-.704-1.712-.458-.352-1.12-.528-1.984-.528h-1.36v4.592h1.328zm11.174 3.28c0 .341.059.597.176.768.117.16.293.283.528.368l-.336 1.024c-.437-.053-.79-.176-1.056-.368-.267-.192-.464-.49-.592-.896-.565.843-1.402 1.264-2.512 1.264-.832 0-1.488-.235-1.968-.704-.48-.47-.72-1.083-.72-1.84 0-.896.32-1.584.96-2.064.65-.48 1.568-.72 2.752-.72h1.296v-.624c0-.597-.144-1.024-.432-1.28-.288-.256-.73-.384-1.328-.384-.618 0-1.376.15-2.272.448l-.368-1.072c1.045-.384 2.016-.576 2.912-.576.992 0 1.733.245 2.224.736.49.48.736 1.168.736 2.064v3.856zm-3.456 1.056c.843 0 1.504-.437 1.984-1.312V84.84h-1.104c-1.557 0-2.336.576-2.336 1.728 0 .501.123.88.368 1.136.245.256.608.384 1.088.384zm8.56-7.712c.533 0 1.029.09 1.487.272.47.17.843.427 1.12.768.288.341.432.752.432 1.232 0 .47-.138.853-.416 1.152-.266.299-.693.528-1.28.688.704.117 1.238.336 1.6.656.363.32.544.779.544 1.376 0 .875-.341 1.541-1.024 2-.672.448-1.53.672-2.576.672-1.269 0-2.352-.352-3.248-1.056l.768-.912a4.38 4.38 0 001.12.592c.384.128.822.192 1.312.192 1.376 0 2.064-.501 2.064-1.504 0-.49-.197-.832-.592-1.024-.384-.203-.922-.304-1.616-.304h-1.12l.096-1.152h.864c.598 0 1.078-.107 1.44-.32.363-.213.544-.544.544-.992 0-.416-.154-.715-.464-.896-.309-.192-.714-.288-1.216-.288-.437 0-.826.059-1.168.176a3.91 3.91 0 00-1.008.512l-.704-.88c.427-.32.886-.56 1.376-.72a5.36 5.36 0 011.664-.24zm9.791 0c1.078 0 1.867.384 2.368 1.152.502.768.752 1.85.752 3.248 0 1.323-.288 2.39-.864 3.2-.576.81-1.392 1.216-2.448 1.216-.938 0-1.674-.32-2.208-.96v4l-1.472.176v-11.84h1.264l.112 1.136c.31-.427.683-.752 1.12-.976a2.87 2.87 0 011.376-.352zm-.544 7.616c1.387 0 2.08-1.072 2.08-3.216 0-2.155-.634-3.232-1.904-3.232-.416 0-.794.123-1.136.368-.341.245-.64.56-.896.944v4.112c.214.33.48.587.8.768.32.17.672.256 1.056.256zm11.696-.96c0 .341.059.597.176.768.117.16.293.283.528.368l-.336 1.024c-.437-.053-.79-.176-1.056-.368-.267-.192-.464-.49-.592-.896-.565.843-1.403 1.264-2.512 1.264-.832 0-1.488-.235-1.968-.704-.48-.47-.72-1.083-.72-1.84 0-.896.32-1.584.96-2.064.65-.48 1.568-.72 2.752-.72h1.296v-.624c0-.597-.144-1.024-.432-1.28-.288-.256-.73-.384-1.328-.384-.619 0-1.376.15-2.272.448l-.368-1.072c1.045-.384 2.016-.576 2.912-.576.992 0 1.733.245 2.224.736.49.48.736 1.168.736 2.064v3.856zm-3.456 1.056c.843 0 1.504-.437 1.984-1.312V84.84h-1.104c-1.557 0-2.336.576-2.336 1.728 0 .501.123.88.368 1.136.245.256.608.384 1.088.384zm10.16-6.976c.96 0 1.722.347 2.287 1.04.576.693.864 1.637.864 2.832 0 1.333-.336 2.368-1.008 3.104-.672.736-1.573 1.104-2.704 1.104-1.13 0-2.037-.4-2.72-1.2-.672-.8-1.008-2.01-1.008-3.632 0-1.227.09-2.23.272-3.008.192-.79.517-1.435.976-1.936.47-.512 1.126-.912 1.968-1.2.63-.213 1.13-.405 1.504-.576.384-.17.773-.39 1.168-.656l.624 1.104c-.373.235-.763.453-1.168.656-.395.192-.87.379-1.424.56-.533.181-.954.39-1.264.624-.31.224-.56.555-.752.992-.181.427-.304 1.013-.368 1.76.299-.49.683-.875 1.152-1.152a3.085 3.085 0 011.6-.416zm-.56 6.896c.65 0 1.167-.219 1.551-.656.384-.448.576-1.221.576-2.32 0-.97-.16-1.67-.48-2.096-.31-.427-.763-.64-1.36-.64-.49 0-.95.133-1.376.4-.426.256-.778.65-1.056 1.184v1.024c0 .992.187 1.76.56 2.304.384.533.912.8 1.584.8zm9.313-7.632c1.184 0 2.101.395 2.752 1.184.661.79.992 1.861.992 3.216 0 .875-.15 1.648-.448 2.32-.299.661-.731 1.179-1.296 1.552-.566.363-1.237.544-2.016.544-1.184 0-2.107-.395-2.768-1.184-.662-.79-.992-1.861-.992-3.216 0-.875.15-1.643.448-2.304.299-.672.73-1.19 1.296-1.552.565-.373 1.242-.56 2.032-.56zm0 1.184c-1.462 0-2.192 1.077-2.192 3.232 0 2.144.725 3.216 2.176 3.216 1.45 0 2.176-1.077 2.176-3.232 0-2.144-.72-3.216-2.16-3.216zm11.465-.992l-.176 1.2h-2.704V89h-1.472v-7.232h-2.784v-1.2h7.136zm7.843 0l-2.56 3.904L117.058 89h-1.744l-2.336-3.888h-1.072V89h-1.472v-8.432h1.472v3.392h1.104l2.128-3.392h1.616zm7.423 6.464c0 .341.058.597.176.768.117.16.293.283.528.368l-.336 1.024c-.438-.053-.79-.176-1.056-.368-.267-.192-.464-.49-.592-.896-.566.843-1.403 1.264-2.512 1.264-.832 0-1.488-.235-1.968-.704-.48-.47-.72-1.083-.72-1.84 0-.896.32-1.584.96-2.064.65-.48 1.568-.72 2.752-.72h1.296v-.624c0-.597-.144-1.024-.432-1.28-.288-.256-.731-.384-1.328-.384-.619 0-1.376.15-2.272.448l-.368-1.072c1.045-.384 2.016-.576 2.912-.576.992 0 1.733.245 2.224.736.49.48.736 1.168.736 2.064v3.856zm-3.456 1.056c.842 0 1.504-.437 1.984-1.312V84.84h-1.104c-1.558 0-2.336.576-2.336 1.728 0 .501.122.88.368 1.136.245.256.608.384 1.088.384z" fill="#fff"></path>
  </symbol>
  <symbol fill="none" xmlns="http://www.w3.org/2000/svg" viewBox="0 0 106 66" id="card-text (3)">
    <g filter="url(#filter0_d)" fill="#111238">
      <g clip-path="url(#clip0)">
        <path d="M58.656.93L46.464 13.122A4.966 4.966 0 0045 16.657V18a1 1 0 001 1h1.343a4.965 4.965 0 003.535-1.464L63.07 5.344a3.125 3.125 0 000-4.414 3.194 3.194 0 00-4.414 0zm3 3L49.464 16.122a3.02 3.02 0 01-2.121.878H47v-.343a3.02 3.02 0 01.878-2.121L60.07 2.344a1.148 1.148 0 011.586 0 1.123 1.123 0 010 1.586z"></path>
        <path d="M63 8.979a1 1 0 00-1 1V15h-4a3 3 0 00-3 3v4H45a3 3 0 01-3-3V5a3 3 0 013-3h9.042a1 1 0 100-2H45a5.006 5.006 0 00-5 5v14a5.006 5.006 0 005 5h11.343a4.967 4.967 0 003.536-1.464l2.656-2.658A4.969 4.969 0 0064 16.343V9.979a1 1 0 00-1-1zm-4.535 12.143a2.97 2.97 0 01-1.465.8V18a1 1 0 011-1h3.925a3.016 3.016 0 01-.8 1.464l-2.66 2.658z"></path>
      </g>
      <path d="M11.773 42.976l-3.056 5.168L12.076 54h-1.76l-2.88-5.168H5.931V54h-1.52V42.976h1.52v4.608h1.52l2.72-4.608h1.6zm4.93 2.4c1.185 0 2.102.395 2.753 1.184.661.79.992 1.861.992 3.216 0 .875-.15 1.648-.448 2.32-.299.661-.731 1.179-1.296 1.552-.566.363-1.238.544-2.016.544-1.184 0-2.107-.395-2.768-1.184-.662-.79-.992-1.861-.992-3.216 0-.875.149-1.643.448-2.304.298-.672.73-1.19 1.296-1.552.565-.373 1.242-.56 2.032-.56zm0 1.184c-1.46 0-2.191 1.077-2.191 3.232 0 2.144.725 3.216 2.176 3.216 1.45 0 2.176-1.077 2.176-3.232 0-2.144-.72-3.216-2.16-3.216zM27.808 54v-7.232h-3.456V54H22.88v-8.432h6.4V54h-1.472zm11.07 0H37.42v-3.808c0-.64.021-1.248.064-1.824.043-.576.08-.955.112-1.136L34.06 54h-1.744v-8.432h1.456v3.808c0 .565-.022 1.152-.064 1.76a30.58 30.58 0 01-.096 1.152l3.488-6.72h1.776V54zm6.906-8.624c1.077 0 1.866.384 2.368 1.152.501.768.752 1.85.752 3.248 0 1.323-.288 2.39-.864 3.2-.576.81-1.392 1.216-2.448 1.216-.939 0-1.675-.32-2.208-.96v4l-1.472.176v-11.84h1.264l.112 1.136a3.15 3.15 0 011.12-.976 2.87 2.87 0 011.376-.352zm-.544 7.616c1.386 0 2.08-1.072 2.08-3.216 0-2.155-.635-3.232-1.904-3.232-.416 0-.795.123-1.136.368a3.6 3.6 0 00-.896.944v4.112c.213.33.48.587.8.768.32.17.672.256 1.056.256zm11.695-.96c0 .341.059.597.176.768a1.1 1.1 0 00.528.368l-.336 1.024c-.437-.053-.789-.176-1.056-.368-.266-.192-.464-.49-.592-.896-.565.843-1.402 1.264-2.512 1.264-.832 0-1.488-.235-1.968-.704-.48-.47-.72-1.083-.72-1.84 0-.896.32-1.584.96-2.064.651-.48 1.568-.72 2.752-.72h1.296v-.624c0-.597-.144-1.024-.432-1.28-.288-.256-.73-.384-1.328-.384-.618 0-1.376.15-2.272.448l-.368-1.072c1.046-.384 2.016-.576 2.912-.576.992 0 1.734.245 2.224.736.491.48.736 1.168.736 2.064v3.856zm-3.456 1.056c.843 0 1.504-.437 1.984-1.312V49.84h-1.104c-1.557 0-2.336.576-2.336 1.728 0 .501.123.88.368 1.136.246.256.608.384 1.088.384zm13.04.912H65.06v-3.808c0-.64.022-1.248.064-1.824.043-.576.08-.955.112-1.136L61.703 54h-1.744v-8.432h1.456v3.808c0 .565-.022 1.152-.065 1.76a29.21 29.21 0 01-.095 1.152l3.488-6.72h1.775V54zm-3.313-10.288c-.65 0-1.2-.165-1.648-.496-.437-.341-.688-.8-.752-1.376l.977-.208c.106.341.272.587.496.736.234.15.544.224.928.224.383 0 .698-.075.944-.224.245-.16.42-.405.527-.736l.976.208a1.907 1.907 0 01-.784 1.376c-.448.33-1.002.496-1.663.496zm12.042 1.856l-.176 1.2h-2.704V54h-1.472v-7.232h-2.784v-1.2h7.136zM83.33 54h-1.456v-3.808c0-.64.021-1.248.064-1.824.043-.576.08-.955.112-1.136L78.514 54H76.77v-8.432h1.456v3.808c0 .565-.021 1.152-.064 1.76a30.58 30.58 0 01-.096 1.152l3.488-6.72h1.776V54zm8.01 0v-3.712h-3.504V54h-1.472v-8.432h1.472v3.536h3.504v-3.536h1.472V54H91.34zm5.98 0h-1.472v-8.432h5.264l-.192 1.216h-3.6V54z"></path>
    </g>
    <defs>
      <clipPath id="clip0">
        <path fill="#fff" transform="translate(40)" d="M0 0h24v24H0z"></path>
      </clipPath>
      <filter id="filter0_d" x="-1.5" y="0" width="107" height="66" filterUnits="userSpaceOnUse" color-interpolation-filters="sRGB">
        <feFlood flood-opacity="0" result="BackgroundImageFix"></feFlood>
        <feColorMatrix in="SourceAlpha" values="0 0 0 0 0 0 0 0 0 0 0 0 0 0 0 0 0 0 127 0"></feColorMatrix>
        <feOffset dy="4"></feOffset>
        <feGaussianBlur stdDeviation="2"></feGaussianBlur>
        <feColorMatrix values="0 0 0 0 0 0 0 0 0 0 0 0 0 0 0 0 0 0 0.25 0"></feColorMatrix>
        <feBlend in2="BackgroundImageFix" result="effect1_dropShadow"></feBlend>
        <feBlend in="SourceGraphic" in2="effect1_dropShadow" result="shape"></feBlend>
      </filter>
    </defs>
  </symbol>
  <symbol fill="none" xmlns="http://www.w3.org/2000/svg" viewBox="0 0 166 128" id="card (3)">
    <rect width="166" height="128" rx="10" fill="#F2F3F6"></rect>
    <g filter="url(#filter0_d)" fill="#111238">
      <g clip-path="url(#clip0)">
        <path d="M89.656 35.93L77.464 48.122A4.966 4.966 0 0076 51.657V53a1 1 0 001 1h1.343a4.965 4.965 0 003.535-1.464L94.07 40.344a3.125 3.125 0 000-4.414 3.194 3.194 0 00-4.414 0zm3 3L80.464 51.122a3.02 3.02 0 01-2.121.878H78v-.343a3.02 3.02 0 01.878-2.121L91.07 37.344a1.148 1.148 0 011.586 0 1.123 1.123 0 010 1.586z"></path>
        <path d="M94 43.979a1 1 0 00-1 1V50h-4a3 3 0 00-3 3v4H76a3 3 0 01-3-3V40a3 3 0 013-3h9.042a1 1 0 000-2H76a5.006 5.006 0 00-5 5v14a5.006 5.006 0 005 5h11.343a4.967 4.967 0 003.536-1.464l2.656-2.658A4.969 4.969 0 0095 51.343v-6.364a1 1 0 00-1-1zm-4.535 12.143a2.97 2.97 0 01-1.465.8V53a1 1 0 011-1h3.925a3.016 3.016 0 01-.8 1.464l-2.66 2.658z"></path>
      </g>
      <path d="M42.773 77.976l-3.056 5.168L43.077 89h-1.76l-2.88-5.168h-1.505V89h-1.52V77.976h1.52v4.608h1.52l2.72-4.608h1.6zm4.93 2.4c1.185 0 2.102.395 2.753 1.184.661.79.992 1.861.992 3.216 0 .875-.15 1.648-.448 2.32-.299.661-.731 1.179-1.296 1.552-.566.363-1.238.544-2.016.544-1.184 0-2.107-.395-2.768-1.184-.662-.79-.992-1.861-.992-3.216 0-.875.149-1.643.448-2.304.298-.672.73-1.19 1.296-1.552.565-.373 1.242-.56 2.032-.56zm0 1.184c-1.46 0-2.191 1.077-2.191 3.232 0 2.144.725 3.216 2.176 3.216 1.45 0 2.176-1.077 2.176-3.232 0-2.144-.72-3.216-2.16-3.216zM58.808 89v-7.232h-3.456V89H53.88v-8.432h6.4V89h-1.472zm11.07 0H68.42v-3.808c0-.64.021-1.248.064-1.824.043-.576.08-.955.112-1.136L65.06 89h-1.744v-8.432h1.456v3.808c0 .565-.022 1.152-.064 1.76a30.58 30.58 0 01-.096 1.152l3.488-6.72h1.776V89zm6.906-8.624c1.077 0 1.866.384 2.368 1.152.501.768.752 1.85.752 3.248 0 1.323-.288 2.39-.864 3.2-.576.81-1.392 1.216-2.448 1.216-.939 0-1.675-.32-2.208-.96v4l-1.472.176v-11.84h1.264l.112 1.136a3.15 3.15 0 011.12-.976 2.87 2.87 0 011.376-.352zm-.544 7.616c1.386 0 2.08-1.072 2.08-3.216 0-2.155-.635-3.232-1.904-3.232-.416 0-.795.123-1.136.368a3.6 3.6 0 00-.896.944v4.112c.213.33.48.587.8.768.32.17.672.256 1.056.256zm11.695-.96c0 .341.059.597.176.768a1.1 1.1 0 00.528.368l-.336 1.024c-.437-.053-.789-.176-1.056-.368-.266-.192-.464-.49-.592-.896-.565.843-1.402 1.264-2.512 1.264-.832 0-1.488-.235-1.968-.704-.48-.47-.72-1.083-.72-1.84 0-.896.32-1.584.96-2.064.651-.48 1.568-.72 2.752-.72h1.296v-.624c0-.597-.144-1.024-.432-1.28-.288-.256-.73-.384-1.328-.384-.618 0-1.376.15-2.272.448l-.368-1.072c1.046-.384 2.016-.576 2.912-.576.992 0 1.734.245 2.224.736.491.48.736 1.168.736 2.064v3.856zm-3.456 1.056c.843 0 1.504-.437 1.984-1.312V84.84h-1.104c-1.557 0-2.336.576-2.336 1.728 0 .501.123.88.368 1.136.246.256.608.384 1.088.384zm13.04.912H96.06v-3.808c0-.64.022-1.248.064-1.824.043-.576.08-.955.112-1.136L92.703 89h-1.745v-8.432h1.457v3.808c0 .565-.022 1.152-.064 1.76a30.58 30.58 0 01-.096 1.152l3.487-6.72h1.776V89zm-3.313-10.288c-.65 0-1.2-.165-1.647-.496-.438-.341-.689-.8-.753-1.376l.976-.208c.107.341.272.587.496.736.235.15.544.224.928.224.385 0 .7-.075.945-.224.245-.16.42-.405.527-.736l.976.208a1.907 1.907 0 01-.784 1.376c-.448.33-1.002.496-1.663.496zm12.042 1.856l-.176 1.2h-2.704V89h-1.472v-7.232h-2.784v-1.2h7.136zM114.33 89h-1.456v-3.808c0-.64.021-1.248.064-1.824.043-.576.08-.955.112-1.136L109.514 89h-1.744v-8.432h1.456v3.808c0 .565-.021 1.152-.064 1.76a30.46 30.46 0 01-.096 1.152l3.488-6.72h1.776V89zm8.01 0v-3.712h-3.504V89h-1.472v-8.432h1.472v3.536h3.504v-3.536h1.472V89h-1.472zm5.98 0h-1.472v-8.432h5.264l-.192 1.216h-3.6V89z"></path>
    </g>
    <defs>
      <clipPath id="clip0">
        <path fill="#fff" transform="translate(71 35)" d="M0 0h24v24H0z"></path>
      </clipPath>
      <filter id="filter0_d" x="29.5" y="35" width="107" height="66" filterUnits="userSpaceOnUse" color-interpolation-filters="sRGB">
        <feFlood flood-opacity="0" result="BackgroundImageFix"></feFlood>
        <feColorMatrix in="SourceAlpha" values="0 0 0 0 0 0 0 0 0 0 0 0 0 0 0 0 0 0 127 0"></feColorMatrix>
        <feOffset dy="4"></feOffset>
        <feGaussianBlur stdDeviation="2"></feGaussianBlur>
        <feColorMatrix values="0 0 0 0 0 0 0 0 0 0 0 0 0 0 0 0 0 0 0.25 0"></feColorMatrix>
        <feBlend in2="BackgroundImageFix" result="effect1_dropShadow"></feBlend>
        <feBlend in="SourceGraphic" in2="effect1_dropShadow" result="shape"></feBlend>
      </filter>
    </defs>
  </symbol>
  <symbol fill="none" xmlns="http://www.w3.org/2000/svg" viewBox="0 0 104 59" id="card-text (2)">
    <path d="M46.465 22.285a1 1 0 01-.515-1.857C49.493 18.3 49.493 13.73 49.493 11a3 3 0 116 0 1 1 0 01-2 0 1 1 0 00-2 0c0 2.947 0 8.434-4.514 11.143a1.002 1.002 0 01-.514.142zm4.963 1.421c2.282-2.3 3.615-5.534 3.961-9.62A1.001 1.001 0 0054.48 13a.983.983 0 00-1.082.911c-.31 3.657-1.419 6.4-3.388 8.381a1 1 0 101.42 1.41v.004zm5.2-.186a17.803 17.803 0 001.508-3.18 1 1 0 00-1.88-.679 15.904 15.904 0 01-1.339 2.821.998.998 0 00.337 1.375 1 1 0 001.374-.337zm2.365-6.329a31.47 31.47 0 00.5-6.19A7 7 0 0047.28 6.332a1 1 0 101.49 1.334A5 5 0 0157.492 11a29.695 29.695 0 01-.462 5.81 1 1 0 001.962.381zm-11.5-6.19c0-.28.023-.559.07-.834a1.002 1.002 0 00-1.212-1.192 1 1 0 00-.758.858c-.066.386-.1.776-.1 1.167 0 4.645-1.346 7-4 7a1 1 0 100 2c3.87 0 6-3.2 6-9zm13.7 12.413A29.762 29.762 0 0063.493 11a10.865 10.865 0 00-1.1-4.794 1.002 1.002 0 00-1.8.875 8.902 8.902 0 01.9 3.92 27.912 27.912 0 01-2.119 11.585 1 1 0 001.82.828zM43.493 14v-3a9.01 9.01 0 019-9 8.911 8.911 0 015.4 1.8 1 1 0 101.2-1.6 10.9 10.9 0 00-6.6-2.2 11.013 11.013 0 00-11 11v3a1 1 0 102 0zM5.287 47.122c1.323 0 2.352.282 3.088.848.747.565 1.12 1.402 1.12 2.512 0 1.216-.384 2.106-1.152 2.672-.757.565-1.797.848-3.12.848H2.31V42.978h6l-.192 1.248H3.83v2.896h1.456zm.064 5.664c.81 0 1.435-.166 1.872-.496.437-.331.656-.923.656-1.776 0-.79-.219-1.355-.656-1.696-.437-.342-1.077-.512-1.92-.512H3.83v4.48h1.52zm12.514-3.248c0 .245-.011.496-.032.752h-5.376c.064.928.298 1.61.704 2.048.405.437.928.656 1.568.656.405 0 .778-.059 1.12-.176a4.52 4.52 0 001.072-.56l.64.88c-.896.704-1.878 1.056-2.944 1.056-1.174 0-2.091-.384-2.752-1.152-.651-.768-.976-1.824-.976-3.168 0-.875.138-1.648.416-2.32.288-.683.693-1.216 1.216-1.6.533-.384 1.157-.576 1.872-.576 1.12 0 1.978.368 2.576 1.104.597.736.896 1.754.896 3.056zm-1.456-.432c0-.832-.166-1.467-.496-1.904-.331-.438-.827-.656-1.488-.656-1.206 0-1.862.885-1.968 2.656h3.952v-.096zm5.48-3.728c.533 0 1.03.09 1.488.272.47.17.843.426 1.12.768.288.341.432.752.432 1.232 0 .469-.139.853-.416 1.152-.267.298-.693.528-1.28.688.704.117 1.237.336 1.6.656s.544.778.544 1.376c0 .874-.341 1.541-1.024 2-.672.448-1.53.672-2.576.672-1.27 0-2.352-.352-3.248-1.056l.768-.912a4.38 4.38 0 001.12.592 4.14 4.14 0 001.312.192c1.376 0 2.064-.502 2.064-1.504 0-.491-.197-.832-.592-1.024-.384-.203-.923-.304-1.616-.304h-1.12l.096-1.152h.864c.597 0 1.077-.107 1.44-.32.363-.214.544-.544.544-.992 0-.416-.155-.715-.464-.896-.31-.192-.715-.288-1.216-.288-.437 0-.827.058-1.168.176-.33.106-.667.277-1.008.512l-.704-.88a4.72 4.72 0 011.376-.72c.49-.16 1.045-.24 1.664-.24zm9.026 0c1.184 0 2.1.394 2.752 1.184.66.789.992 1.861.992 3.216 0 .874-.15 1.648-.448 2.32-.3.661-.731 1.178-1.296 1.552-.566.362-1.238.544-2.016.544-1.184 0-2.107-.395-2.768-1.184-.662-.79-.992-1.862-.992-3.216 0-.875.149-1.643.448-2.304.298-.672.73-1.19 1.296-1.552.565-.374 1.242-.56 2.032-.56zm0 1.184c-1.462 0-2.192 1.077-2.192 3.232 0 2.144.725 3.216 2.176 3.216 1.45 0 2.176-1.078 2.176-3.232 0-2.144-.72-3.216-2.16-3.216zm11.103 7.44V46.77h-3.456v7.232H37.09V45.57h6.4v8.432h-1.472zm10.19-1.968c0 .341.059.597.176.768.117.16.293.282.528.368l-.336 1.024c-.438-.054-.79-.176-1.056-.368-.267-.192-.464-.491-.592-.896-.566.842-1.403 1.264-2.512 1.264-.832 0-1.488-.235-1.968-.704-.48-.47-.72-1.083-.72-1.84 0-.896.32-1.584.96-2.064.65-.48 1.568-.72 2.752-.72h1.296v-.624c0-.598-.144-1.024-.432-1.28-.288-.256-.73-.384-1.328-.384-.619 0-1.376.149-2.272.448l-.368-1.072c1.045-.384 2.016-.576 2.912-.576.992 0 1.733.245 2.224.736.49.48.736 1.168.736 2.064v3.856zm-3.456 1.056c.842 0 1.504-.438 1.984-1.312v-1.936h-1.104c-1.557 0-2.336.576-2.336 1.728 0 .501.123.88.368 1.136.245.256.608.384 1.088.384zm9.55-7.712c.502 0 .96.074 1.377.224.416.138.816.368 1.2.688l-.704.928a3.346 3.346 0 00-.88-.464 2.566 2.566 0 00-.928-.16c-.683 0-1.216.272-1.6.816-.373.544-.56 1.349-.56 2.416 0 1.066.187 1.856.56 2.368.373.501.907.752 1.6.752.33 0 .635-.048.912-.144.277-.107.587-.272.928-.496l.672.96c-.768.618-1.627.928-2.576.928-1.141 0-2.043-.384-2.704-1.152-.65-.768-.976-1.83-.976-3.184 0-.896.15-1.68.448-2.352.299-.672.72-1.195 1.264-1.568.555-.374 1.21-.56 1.968-.56zm9.546 8.624V50.29h-3.504v3.712h-1.472V45.57h1.472v3.536h3.504V45.57h1.472v8.432h-1.472zm7.676-8.624c1.184 0 2.101.394 2.752 1.184.661.789.992 1.861.992 3.216 0 .874-.15 1.648-.448 2.32-.299.661-.73 1.178-1.296 1.552-.565.362-1.237.544-2.016.544-1.184 0-2.107-.395-2.768-1.184-.661-.79-.992-1.862-.992-3.216 0-.875.15-1.643.448-2.304.299-.672.73-1.19 1.296-1.552.565-.374 1.243-.56 2.032-.56zm0 1.184c-1.461 0-2.192 1.077-2.192 3.232 0 2.144.725 3.216 2.176 3.216 1.45 0 2.176-1.078 2.176-3.232 0-2.144-.72-3.216-2.16-3.216zm9.248-1.184c.501 0 .96.074 1.376.224.416.138.816.368 1.2.688l-.704.928a3.348 3.348 0 00-.88-.464 2.566 2.566 0 00-.928-.16c-.683 0-1.216.272-1.6.816-.374.544-.56 1.349-.56 2.416 0 1.066.186 1.856.56 2.368.373.501.906.752 1.6.752.33 0 .634-.048.912-.144.277-.107.586-.272.928-.496l.672.96c-.768.618-1.627.928-2.576.928-1.142 0-2.043-.384-2.704-1.152-.651-.768-.976-1.83-.976-3.184 0-.896.149-1.68.448-2.352.298-.672.72-1.195 1.264-1.568.554-.374 1.21-.56 1.968-.56zm10.264.192l-.176 1.2h-2.704v7.232h-1.472V46.77H87.9v-1.2h7.136zm4.115 2.72c1.259 0 2.171.245 2.736.736.565.49.848 1.189.848 2.096 0 .949-.32 1.669-.96 2.16-.629.48-1.413.72-2.352.72H96.56V45.57h1.472v2.72h1.12zm.144 4.56c.597 0 1.056-.134 1.376-.4.331-.267.496-.71.496-1.328 0-.587-.155-1.019-.464-1.296-.299-.278-.821-.416-1.568-.416h-1.104v3.44h1.264z" fill="#111238"></path>
  </symbol>
  <symbol fill="none" xmlns="http://www.w3.org/2000/svg" viewBox="0 0 166 129" id="card (2)">
    <rect width="166" height="128.002" rx="10" fill="#F2F3F6"></rect>
    <path d="M77.465 57.285a1 1 0 01-.515-1.857C80.493 53.3 80.493 48.73 80.493 46a3 3 0 116 0 1 1 0 01-2 0 1 1 0 00-2 0c0 2.947 0 8.434-4.514 11.143a1.002 1.002 0 01-.514.142zm4.963 1.421c2.282-2.3 3.615-5.534 3.961-9.62A1.001 1.001 0 0085.48 48a.983.983 0 00-1.082.911c-.31 3.657-1.419 6.4-3.388 8.381a1 1 0 101.42 1.41v.004zm5.2-.186a17.803 17.803 0 001.508-3.18 1 1 0 00-1.88-.679 15.904 15.904 0 01-1.339 2.821.998.998 0 00.337 1.375 1 1 0 001.374-.337zm2.365-6.329a31.47 31.47 0 00.5-6.19 7 7 0 00-12.213-4.668 1 1 0 101.49 1.334A5 5 0 0188.492 46a29.695 29.695 0 01-.462 5.81 1 1 0 001.962.381zm-11.5-6.19c0-.28.023-.559.07-.834a1.002 1.002 0 00-1.212-1.192 1.002 1.002 0 00-.758.858c-.066.386-.1.776-.1 1.167 0 4.645-1.346 7-4 7a1 1 0 100 2c3.87 0 6-3.2 6-9zm13.7 12.413A29.762 29.762 0 0094.493 46a10.865 10.865 0 00-1.1-4.794 1.002 1.002 0 00-1.8.875 8.902 8.902 0 01.9 3.92 27.912 27.912 0 01-2.119 11.585 1 1 0 001.82.828zM74.493 49v-3a9.01 9.01 0 019-9 8.91 8.91 0 015.4 1.8 1 1 0 001.2-1.6 10.9 10.9 0 00-6.6-2.2 11.012 11.012 0 00-11 11v3a1 1 0 102 0zM36.287 82.122c1.323 0 2.352.282 3.088.848.747.565 1.12 1.402 1.12 2.512 0 1.216-.384 2.106-1.152 2.672-.757.565-1.797.848-3.12.848H33.31V77.978h6l-.192 1.248H34.83v2.896h1.456zm.064 5.664c.81 0 1.435-.166 1.872-.496.437-.331.656-.923.656-1.776 0-.79-.219-1.355-.656-1.696-.437-.342-1.077-.512-1.92-.512H34.83v4.48h1.52zm12.514-3.248c0 .245-.011.496-.032.752h-5.376c.064.928.298 1.61.704 2.048.405.437.928.656 1.568.656.405 0 .778-.059 1.12-.176a4.52 4.52 0 001.072-.56l.64.88c-.896.704-1.878 1.056-2.944 1.056-1.174 0-2.091-.384-2.752-1.152-.651-.768-.976-1.824-.976-3.168 0-.875.138-1.648.416-2.32.288-.683.693-1.216 1.216-1.6.533-.384 1.157-.576 1.872-.576 1.12 0 1.978.368 2.576 1.104.597.736.896 1.754.896 3.056zm-1.456-.432c0-.832-.166-1.467-.496-1.904-.331-.438-.827-.656-1.488-.656-1.206 0-1.862.885-1.968 2.656h3.952v-.096zm5.48-3.728c.533 0 1.03.09 1.488.272.47.17.843.426 1.12.768.288.341.432.752.432 1.232 0 .469-.139.853-.416 1.152-.267.298-.693.528-1.28.688.704.117 1.237.336 1.6.656s.544.778.544 1.376c0 .874-.341 1.541-1.024 2-.672.448-1.53.672-2.576.672-1.27 0-2.352-.352-3.248-1.056l.768-.912a4.38 4.38 0 001.12.592 4.14 4.14 0 001.312.192c1.376 0 2.064-.502 2.064-1.504 0-.491-.197-.832-.592-1.024-.384-.203-.923-.304-1.616-.304h-1.12l.096-1.152h.864c.597 0 1.077-.107 1.44-.32.363-.214.544-.544.544-.992 0-.416-.155-.715-.464-.896-.31-.192-.715-.288-1.216-.288-.437 0-.827.058-1.168.176-.33.106-.667.277-1.008.512l-.704-.88a4.72 4.72 0 011.376-.72c.49-.16 1.045-.24 1.664-.24zm9.026 0c1.184 0 2.1.394 2.752 1.184.66.789.992 1.861.992 3.216 0 .874-.15 1.648-.448 2.32-.3.661-.731 1.178-1.296 1.552-.566.362-1.238.544-2.016.544-1.184 0-2.107-.395-2.768-1.184-.662-.79-.992-1.862-.992-3.216 0-.875.149-1.643.448-2.304.298-.672.73-1.19 1.296-1.552.565-.374 1.242-.56 2.032-.56zm0 1.184c-1.462 0-2.192 1.077-2.192 3.232 0 2.144.725 3.216 2.176 3.216 1.45 0 2.176-1.078 2.176-3.232 0-2.144-.72-3.216-2.16-3.216zm11.103 7.44V81.77h-3.456v7.232H68.09V80.57h6.4v8.432h-1.472zm10.19-1.968c0 .341.058.597.176.768.117.16.293.282.528.368l-.336 1.024c-.438-.054-.79-.176-1.056-.368-.267-.192-.464-.491-.592-.896-.566.842-1.403 1.264-2.512 1.264-.832 0-1.488-.235-1.968-.704-.48-.47-.72-1.083-.72-1.84 0-.896.32-1.584.96-2.064.65-.48 1.568-.72 2.752-.72h1.296v-.624c0-.598-.144-1.024-.432-1.28-.288-.256-.73-.384-1.328-.384-.619 0-1.376.149-2.272.448l-.368-1.072c1.045-.384 2.016-.576 2.912-.576.992 0 1.733.245 2.224.736.49.48.736 1.168.736 2.064v3.856zm-3.456 1.056c.843 0 1.504-.438 1.984-1.312v-1.936h-1.104c-1.558 0-2.336.576-2.336 1.728 0 .501.122.88.368 1.136.245.256.608.384 1.088.384zm9.55-7.712c.502 0 .96.074 1.377.224.416.138.816.368 1.2.688l-.704.928a3.346 3.346 0 00-.88-.464 2.566 2.566 0 00-.928-.16c-.683 0-1.216.272-1.6.816-.373.544-.56 1.349-.56 2.416 0 1.066.187 1.856.56 2.368.373.501.907.752 1.6.752.33 0 .635-.048.912-.144.277-.107.587-.272.928-.496l.672.96c-.768.618-1.627.928-2.576.928-1.141 0-2.043-.384-2.704-1.152-.65-.768-.976-1.83-.976-3.184 0-.896.15-1.68.448-2.352.299-.672.72-1.195 1.264-1.568.555-.374 1.21-.56 1.968-.56zm9.546 8.624V85.29h-3.504v3.712h-1.472V80.57h1.472v3.536h3.504V80.57h1.472v8.432h-1.472zm7.676-8.624c1.184 0 2.101.394 2.752 1.184.661.789.992 1.861.992 3.216 0 .874-.149 1.648-.448 2.32-.299.661-.731 1.178-1.296 1.552-.565.362-1.237.544-2.016.544-1.184 0-2.107-.395-2.768-1.184-.661-.79-.992-1.862-.992-3.216 0-.875.149-1.643.448-2.304.299-.672.731-1.19 1.296-1.552.565-.374 1.243-.56 2.032-.56zm0 1.184c-1.461 0-2.192 1.077-2.192 3.232 0 2.144.725 3.216 2.176 3.216s2.176-1.078 2.176-3.232c0-2.144-.72-3.216-2.16-3.216zm9.248-1.184c.501 0 .96.074 1.376.224.416.138.816.368 1.2.688l-.704.928a3.353 3.353 0 00-.88-.464 2.57 2.57 0 00-.928-.16c-.683 0-1.216.272-1.6.816-.374.544-.56 1.349-.56 2.416 0 1.066.186 1.856.56 2.368.373.501.906.752 1.6.752.33 0 .634-.048.912-.144a5.05 5.05 0 00.928-.496l.672.96c-.768.618-1.627.928-2.576.928-1.142 0-2.043-.384-2.704-1.152-.651-.768-.976-1.83-.976-3.184 0-.896.149-1.68.448-2.352.298-.672.72-1.195 1.264-1.568.554-.374 1.21-.56 1.968-.56zm10.264.192l-.176 1.2h-2.704v7.232h-1.472V81.77H118.9v-1.2h7.136zm4.115 2.72c1.259 0 2.171.245 2.736.736.565.49.848 1.189.848 2.096 0 .949-.32 1.669-.96 2.16-.629.48-1.413.72-2.352.72h-2.864V80.57h1.472v2.72h1.12zm.144 4.56c.597 0 1.056-.134 1.376-.4.331-.267.496-.71.496-1.328 0-.587-.155-1.019-.464-1.296-.299-.278-.821-.416-1.568-.416h-1.104v3.44h1.264z" fill="#111238"></path>
  </symbol>
  <symbol fill="none" xmlns="http://www.w3.org/2000/svg" viewBox="0 0 48 58" id="card-text (1)">
    <g clip-path="url(#clip0)">
      <path d="M34.9 8.955a1.987 1.987 0 00-2.092.184L30.975 10.5A5.007 5.007 0 0026 6h-.085l-4.122-4.121A2.976 2.976 0 0019.672 1H13a1 1 0 100 2h6.672c.265 0 .52.106.707.293L23.086 6H17a5.006 5.006 0 00-5 5v8a5.006 5.006 0 005 5h9a5.007 5.007 0 004.975-4.5l1.83 1.364a2 2 0 003.2-1.6v-8.521A1.988 1.988 0 0034.9 8.955zM29 19a3 3 0 01-3 3h-9a3 3 0 01-3-3v-8a3 3 0 013-3h9a3 3 0 013 3v8zm5 .257l-3-2.236v-4.042l3-2.236v8.514z" fill="#111238"></path>
    </g>
    <path d="M7.323 48.176c.758.128 1.371.395 1.84.8.47.405.704 1.035.704 1.888C9.867 52.954 8.411 54 5.5 54H2.46V42.976h2.608c1.398 0 2.464.23 3.2.688.747.459 1.12 1.157 1.12 2.096 0 .64-.202 1.173-.608 1.6-.394.427-.88.699-1.456.816zm-3.344-4v3.472h1.664c.64 0 1.163-.155 1.568-.464.416-.31.624-.747.624-1.312 0-.64-.218-1.083-.656-1.328-.426-.245-1.077-.368-1.952-.368H3.98zm1.52 8.608c.896 0 1.579-.133 2.048-.4.48-.267.72-.773.72-1.52 0-.725-.229-1.248-.688-1.568-.458-.32-1.056-.48-1.792-.48H3.98v3.968H5.5zM18.674 54h-1.456v-3.808c0-.64.021-1.248.064-1.824.042-.576.08-.955.112-1.136L13.858 54h-1.744v-8.432h1.456v3.808c0 .565-.022 1.152-.064 1.76a30.58 30.58 0 01-.096 1.152l3.488-6.72h1.776V54zm9.802-1.184V56.4h-1.2l-.24-2.4h-5.409l-.24 2.4h-1.2v-3.584h.592c.256-.17.46-.363.608-.576.15-.224.283-.608.4-1.152.129-.544.23-1.339.305-2.384l.224-3.136h5.28v7.248h.88zm-2.352-6.08h-2.48l-.128 1.776c-.075.992-.16 1.755-.256 2.288-.097.533-.235.944-.417 1.232-.17.288-.42.55-.752.784h4.032v-6.08zm10.842 2.8c0 .245-.01.496-.032.752h-5.376c.064.928.299 1.61.704 2.048.405.437.928.656 1.568.656a3.43 3.43 0 001.12-.176 4.513 4.513 0 001.072-.56l.64.88c-.896.704-1.877 1.056-2.944 1.056-1.173 0-2.09-.384-2.752-1.152-.65-.768-.976-1.824-.976-3.168 0-.875.139-1.648.416-2.32.288-.683.694-1.216 1.216-1.6.534-.384 1.157-.576 1.872-.576 1.12 0 1.979.368 2.576 1.104.597.736.896 1.755.896 3.056zm-1.456-.432c0-.832-.165-1.467-.496-1.904-.33-.437-.827-.656-1.488-.656-1.205 0-1.861.885-1.968 2.656h3.952v-.096zm6.975-3.728c1.184 0 2.101.395 2.752 1.184.661.79.992 1.861.992 3.216 0 .875-.15 1.648-.448 2.32-.299.661-.73 1.179-1.296 1.552-.566.363-1.237.544-2.016.544-1.184 0-2.107-.395-2.768-1.184-.662-.79-.992-1.861-.992-3.216 0-.875.15-1.643.448-2.304.299-.672.73-1.19 1.296-1.552.565-.373 1.242-.56 2.032-.56zm0 1.184c-1.462 0-2.192 1.077-2.192 3.232 0 2.144.725 3.216 2.176 3.216 1.45 0 2.176-1.077 2.176-3.232 0-2.144-.72-3.216-2.16-3.216z" fill="#111238"></path>
    <defs>
      <clipPath id="clip0">
        <path fill="#fff" transform="translate(12)" d="M0 0h24v24H0z"></path>
      </clipPath>
    </defs>
  </symbol>
  <symbol fill="none" xmlns="http://www.w3.org/2000/svg" viewBox="0 0 166 128" id="card (1)">
    <rect width="166" height="128" rx="10" fill="#F2F3F6"></rect>
    <g clip-path="url(#clip0)">
      <path d="M93.9 43.955a1.986 1.986 0 00-2.092.184L89.975 45.5A5.007 5.007 0 0085 41h-.085l-4.122-4.121A2.977 2.977 0 0078.672 36H72a1 1 0 000 2h6.672c.265 0 .52.106.707.293L82.086 41H76a5.006 5.006 0 00-5 5v8a5.006 5.006 0 005 5h9a5.007 5.007 0 004.975-4.5l1.83 1.364a2 2 0 003.2-1.6v-8.521a1.988 1.988 0 00-1.105-1.788zM88 54a3 3 0 01-3 3h-9a3 3 0 01-3-3v-8a3 3 0 013-3h9a3 3 0 013 3v8zm5 .257l-3-2.236v-4.042l3-2.236v8.514z" fill="#111238"></path>
    </g>
    <path d="M66.323 83.176c.758.128 1.371.395 1.84.8.47.405.704 1.035.704 1.888 0 2.09-1.456 3.136-4.368 3.136h-3.04V77.976h2.608c1.398 0 2.464.23 3.2.688.747.459 1.12 1.157 1.12 2.096 0 .64-.202 1.173-.608 1.6-.394.427-.88.699-1.456.816zm-3.344-4v3.472h1.664c.64 0 1.163-.155 1.568-.464.416-.31.624-.747.624-1.312 0-.64-.218-1.083-.656-1.328-.426-.245-1.077-.368-1.952-.368H62.98zm1.52 8.608c.896 0 1.579-.133 2.048-.4.48-.267.72-.773.72-1.52 0-.725-.229-1.248-.688-1.568-.458-.32-1.056-.48-1.792-.48H62.98v3.968h1.52zM77.674 89h-1.456v-3.808c0-.64.021-1.248.064-1.824.042-.576.08-.955.112-1.136L72.858 89h-1.744v-8.432h1.456v3.808c0 .565-.022 1.152-.064 1.76a30.58 30.58 0 01-.096 1.152l3.488-6.72h1.776V89zm9.801-1.184V91.4h-1.2l-.24-2.4h-5.407l-.24 2.4h-1.2v-3.584h.591c.257-.17.46-.363.609-.576.149-.224.282-.608.4-1.152.127-.544.229-1.339.303-2.384l.225-3.136h5.28v7.248h.88zm-2.351-6.08h-2.48l-.129 1.776c-.074.992-.16 1.755-.255 2.288-.097.533-.235.944-.416 1.232-.171.288-.422.55-.752.784h4.032v-6.08zm10.842 2.8c0 .245-.01.496-.032.752h-5.376c.064.928.299 1.61.704 2.048.406.437.928.656 1.568.656a3.43 3.43 0 001.12-.176 4.513 4.513 0 001.072-.56l.64.88c-.896.704-1.877 1.056-2.944 1.056-1.173 0-2.09-.384-2.752-1.152-.65-.768-.976-1.824-.976-3.168 0-.875.139-1.648.416-2.32.288-.683.694-1.216 1.216-1.6.534-.384 1.157-.576 1.872-.576 1.12 0 1.979.368 2.576 1.104.598.736.896 1.755.896 3.056zm-1.456-.432c0-.832-.165-1.467-.496-1.904-.33-.437-.826-.656-1.488-.656-1.205 0-1.861.885-1.968 2.656h3.952v-.096zm6.975-3.728c1.184 0 2.101.395 2.752 1.184.661.79.992 1.861.992 3.216 0 .875-.149 1.648-.448 2.32-.299.661-.731 1.179-1.296 1.552-.565.363-1.237.544-2.016.544-1.184 0-2.107-.395-2.768-1.184-.661-.79-.992-1.861-.992-3.216 0-.875.15-1.643.448-2.304.299-.672.73-1.19 1.296-1.552.565-.373 1.243-.56 2.032-.56zm0 1.184c-1.461 0-2.192 1.077-2.192 3.232 0 2.144.725 3.216 2.176 3.216s2.176-1.077 2.176-3.232c0-2.144-.72-3.216-2.16-3.216z" fill="#111238"></path>
    <defs>
      <clipPath id="clip0">
        <path fill="#fff" transform="translate(71 35)" d="M0 0h24v24H0z"></path>
      </clipPath>
    </defs>
  </symbol>
  <symbol fill="none" xmlns="http://www.w3.org/2000/svg" viewBox="0 0 108 66" id="card-text">
    <g filter="url(#filter0_d)">
      <g clip-path="url(#clip0)">
        <path d="M61 6h-4.679A3.95 3.95 0 0055 5.388V5l3.53-1.652a1 1 0 000-1.7l-3.2-1.5A1.637 1.637 0 0053 1.636v3.752c-.474.12-.922.328-1.32.612H47a5.006 5.006 0 00-5 5v10a3 3 0 003 3h18a3 3 0 003-3V11a5.006 5.006 0 00-5-5zm2.816 4h-2.159a3.017 3.017 0 01-2.121-.879L58.414 8H61a3 3 0 012.816 2zM47 8h2.586l-1.122 1.121a3.017 3.017 0 01-2.121.879h-2.159A3 3 0 0147 8zm8 14h-2v-3a1 1 0 012 0v3zm8 0h-6v-3a3 3 0 00-6 0v3h-6a1 1 0 01-1-1v-9h2.343a4.968 4.968 0 003.535-1.465l2.708-2.707a2 2 0 012.828 0l2.708 2.707A4.967 4.967 0 0061.657 12H64v9a1 1 0 01-1 1zm-14-7a1 1 0 01-1 1h-1a1 1 0 010-2h1a1 1 0 011 1zm0 4a1 1 0 01-1 1h-1a1 1 0 010-2h1a1 1 0 011 1zm13-4a1 1 0 01-1 1h-1a1 1 0 010-2h1a1 1 0 011 1zm0 4a1 1 0 01-1 1h-1a1 1 0 010-2h1a1 1 0 011 1zm-6-7a2 2 0 11-4 0 2 2 0 014 0z" fill="#111238"></path>
      </g>
      <path d="M9.013 42.784c.928 0 1.738.224 2.432.672.704.437 1.248 1.083 1.632 1.936.394.853.592 1.888.592 3.104 0 1.195-.198 2.219-.592 3.072-.384.853-.928 1.504-1.632 1.952-.694.448-1.504.672-2.432.672-.928 0-1.744-.219-2.448-.656-.694-.437-1.238-1.083-1.632-1.936-.384-.853-.576-1.883-.576-3.088 0-1.184.192-2.208.576-3.072.394-.864.944-1.52 1.648-1.968.704-.459 1.514-.688 2.432-.688zm0 1.248c-.96 0-1.707.363-2.24 1.088-.534.725-.8 1.856-.8 3.392 0 1.525.266 2.645.8 3.36.544.715 1.29 1.072 2.24 1.072 2.026 0 3.04-1.483 3.04-4.448 0-2.976-1.014-4.464-3.04-4.464zm10.742 2.08c.96 0 1.722.347 2.288 1.04.576.693.864 1.637.864 2.832 0 1.333-.336 2.368-1.008 3.104-.672.736-1.574 1.104-2.704 1.104-1.131 0-2.038-.4-2.72-1.2-.672-.8-1.008-2.01-1.008-3.632 0-1.227.09-2.23.272-3.008.192-.79.517-1.435.976-1.936.469-.512 1.125-.912 1.968-1.2.629-.213 1.13-.405 1.504-.576.384-.17.773-.39 1.168-.656l.624 1.104c-.374.235-.763.453-1.168.656-.395.192-.87.379-1.424.56-.534.181-.955.39-1.264.624-.31.224-.56.555-.752.992-.182.427-.304 1.013-.368 1.76a3.3 3.3 0 011.152-1.152 3.085 3.085 0 011.6-.416zm-.56 6.896c.65 0 1.168-.219 1.552-.656.384-.448.576-1.221.576-2.32 0-.97-.16-1.67-.48-2.096-.31-.427-.763-.64-1.36-.64-.491 0-.95.133-1.376.4-.427.256-.779.65-1.056 1.184v1.024c0 .992.186 1.76.56 2.304.384.533.912.8 1.584.8zm10.017-7.632c1.078 0 1.867.384 2.368 1.152.502.768.752 1.85.752 3.248 0 1.323-.288 2.39-.864 3.2-.576.81-1.392 1.216-2.448 1.216-.938 0-1.674-.32-2.208-.96v4l-1.472.176v-11.84h1.264l.112 1.136c.31-.427.683-.752 1.12-.976a2.87 2.87 0 011.376-.352zm-.544 7.616c1.387 0 2.08-1.072 2.08-3.216 0-2.155-.634-3.232-1.904-3.232-.416 0-.794.123-1.136.368-.341.245-.64.56-.896.944v4.112c.214.33.48.587.8.768.32.17.672.256 1.056.256zm11.696-.96c0 .341.059.597.176.768.117.16.293.283.528.368l-.336 1.024c-.437-.053-.79-.176-1.056-.368-.267-.192-.464-.49-.592-.896-.565.843-1.403 1.264-2.512 1.264-.832 0-1.488-.235-1.968-.704-.48-.47-.72-1.083-.72-1.84 0-.896.32-1.584.96-2.064.65-.48 1.568-.72 2.752-.72h1.296v-.624c0-.597-.144-1.024-.432-1.28-.288-.256-.73-.384-1.328-.384-.619 0-1.376.15-2.272.448l-.368-1.072c1.045-.384 2.016-.576 2.912-.576.992 0 1.733.245 2.224.736.49.48.736 1.168.736 2.064v3.856zm-3.456 1.056c.843 0 1.504-.437 1.984-1.312V49.84h-1.104c-1.557 0-2.336.576-2.336 1.728 0 .501.123.88.368 1.136.245.256.608.384 1.088.384zm8.56-7.712c.532 0 1.028.09 1.487.272.47.17.843.427 1.12.768.288.341.432.752.432 1.232 0 .47-.139.853-.416 1.152-.267.299-.693.528-1.28.688.704.117 1.237.336 1.6.656s.544.779.544 1.376c0 .875-.341 1.541-1.024 2-.672.448-1.53.672-2.576.672-1.27 0-2.352-.352-3.248-1.056l.768-.912a4.38 4.38 0 001.12.592c.384.128.822.192 1.312.192 1.376 0 2.064-.501 2.064-1.504 0-.49-.197-.832-.592-1.024-.384-.203-.923-.304-1.616-.304h-1.12l.096-1.152h.864c.597 0 1.078-.107 1.44-.32.363-.213.544-.544.544-.992 0-.416-.154-.715-.464-.896-.31-.192-.715-.288-1.216-.288-.437 0-.827.059-1.168.176a3.91 3.91 0 00-1.008.512l-.704-.88c.427-.32.886-.56 1.376-.72.49-.16 1.046-.24 1.664-.24zm9.025 0c1.184 0 2.101.395 2.752 1.184.661.79.992 1.861.992 3.216 0 .875-.15 1.648-.448 2.32-.299.661-.731 1.179-1.296 1.552-.566.363-1.238.544-2.016.544-1.184 0-2.107-.395-2.768-1.184-.662-.79-.992-1.861-.992-3.216 0-.875.149-1.643.448-2.304.298-.672.73-1.19 1.296-1.552.565-.373 1.242-.56 2.032-.56zm0 1.184c-1.462 0-2.192 1.077-2.192 3.232 0 2.144.725 3.216 2.176 3.216 1.45 0 2.176-1.077 2.176-3.232 0-2.144-.72-3.216-2.16-3.216zm10.623 2.864c1.43.139 2.144.8 2.144 1.984 0 .885-.325 1.541-.976 1.968-.64.416-1.498.624-2.576.624h-3.04v-8.32a13.88 13.88 0 012.768-.304c1.046 0 1.872.197 2.48.592.608.395.912.96.912 1.696 0 .48-.144.87-.432 1.168-.288.299-.714.496-1.28.592zm-1.664-2.912c-.448 0-.885.032-1.312.096v2.384h1.584c.512 0 .907-.096 1.184-.288.278-.192.416-.517.416-.976 0-.427-.154-.736-.464-.928-.309-.192-.778-.288-1.408-.288zm.256 6.336c.63 0 1.12-.107 1.472-.32.352-.213.528-.597.528-1.152 0-.459-.149-.79-.448-.992-.298-.203-.805-.304-1.52-.304h-1.6v2.768h1.568zm11.515-.816c0 .341.06.597.176.768a1.1 1.1 0 00.528.368l-.336 1.024c-.437-.053-.789-.176-1.056-.368-.266-.192-.464-.49-.592-.896-.565.843-1.402 1.264-2.512 1.264-.832 0-1.488-.235-1.968-.704-.48-.47-.72-1.083-.72-1.84 0-.896.32-1.584.96-2.064.651-.48 1.568-.72 2.752-.72h1.296v-.624c0-.597-.144-1.024-.432-1.28-.288-.256-.73-.384-1.328-.384-.618 0-1.376.15-2.272.448l-.368-1.072c1.046-.384 2.016-.576 2.912-.576.992 0 1.734.245 2.224.736.491.48.736 1.168.736 2.064v3.856zm-3.456 1.056c.843 0 1.504-.437 1.984-1.312V49.84h-1.104c-1.557 0-2.336.576-2.336 1.728 0 .501.123.88.368 1.136.246.256.608.384 1.088.384zM83.223 54v-3.712h-3.504V54h-1.472v-8.432h1.472v3.536h3.504v-3.536h1.472V54h-1.472zm11.068 0h-1.456v-3.808c0-.64.021-1.248.064-1.824.043-.576.08-.955.112-1.136L89.475 54H87.73v-8.432h1.456v3.808c0 .565-.021 1.152-.064 1.76a30.58 30.58 0 01-.096 1.152l3.488-6.72h1.776V54zm9.402-4.464c0 .245-.011.496-.032.752h-5.376c.064.928.298 1.61.704 2.048.405.437.928.656 1.568.656a3.43 3.43 0 001.12-.176 4.534 4.534 0 001.072-.56l.64.88c-.896.704-1.878 1.056-2.944 1.056-1.174 0-2.091-.384-2.752-1.152-.651-.768-.976-1.824-.976-3.168 0-.875.138-1.648.416-2.32.288-.683.693-1.216 1.216-1.6.533-.384 1.157-.576 1.872-.576 1.12 0 1.978.368 2.576 1.104.597.736.896 1.755.896 3.056zm-1.456-.432c0-.832-.166-1.467-.496-1.904-.331-.437-.827-.656-1.488-.656-1.206 0-1.862.885-1.968 2.656h3.952v-.096z" fill="#111238"></path>
    </g>
    <defs>
      <clipPath id="clip0">
        <path fill="#fff" transform="translate(42)" d="M0 0h24v24H0z"></path>
      </clipPath>
      <filter id="filter0_d" x="-1" y="0" width="110" height="66" filterUnits="userSpaceOnUse" color-interpolation-filters="sRGB">
        <feFlood flood-opacity="0" result="BackgroundImageFix"></feFlood>
        <feColorMatrix in="SourceAlpha" values="0 0 0 0 0 0 0 0 0 0 0 0 0 0 0 0 0 0 127 0"></feColorMatrix>
        <feOffset dy="4"></feOffset>
        <feGaussianBlur stdDeviation="2"></feGaussianBlur>
        <feColorMatrix values="0 0 0 0 0 0 0 0 0 0 0 0 0 0 0 0 0 0 0.25 0"></feColorMatrix>
        <feBlend in2="BackgroundImageFix" result="effect1_dropShadow"></feBlend>
        <feBlend in="SourceGraphic" in2="effect1_dropShadow" result="shape"></feBlend>
      </filter>
    </defs>
  </symbol>
  <symbol fill="none" xmlns="http://www.w3.org/2000/svg" viewBox="0 0 166 128" id="card">
    <rect width="166" height="128" rx="10" fill="#F2F3F6"></rect>
    <g filter="url(#filter0_d)">
      <g clip-path="url(#clip0)">
        <path d="M90 41h-4.679A3.95 3.95 0 0084 40.388V40l3.53-1.652a1 1 0 000-1.7l-3.2-1.5A1.637 1.637 0 0082 36.636v3.752c-.474.12-.922.328-1.32.612H76a5.006 5.006 0 00-5 5v10a3 3 0 003 3h18a3 3 0 003-3V46a5.006 5.006 0 00-5-5zm2.816 4h-2.159a3.017 3.017 0 01-2.121-.879L87.414 43H90a3 3 0 012.816 2zM76 43h2.586l-1.122 1.121a3.017 3.017 0 01-2.121.879h-2.159A3 3 0 0176 43zm8 14h-2v-3a1 1 0 012 0v3zm8 0h-6v-3a3 3 0 00-6 0v3h-6a1 1 0 01-1-1v-9h2.343a4.968 4.968 0 003.535-1.465l2.708-2.707a2 2 0 012.828 0l2.708 2.707A4.967 4.967 0 0090.657 47H93v9a1 1 0 01-1 1zm-14-7a1 1 0 01-1 1h-1a1 1 0 010-2h1a1 1 0 011 1zm0 4a1 1 0 01-1 1h-1a1 1 0 010-2h1a1 1 0 011 1zm13-4a1 1 0 01-1 1h-1a1 1 0 010-2h1a1 1 0 011 1zm0 4a1 1 0 01-1 1h-1a1 1 0 010-2h1a1 1 0 011 1zm-6-7a2 2 0 11-4 0 2 2 0 014 0z" fill="#111238"></path>
      </g>
      <path d="M38.013 77.784c.928 0 1.738.224 2.432.672.704.437 1.248 1.083 1.632 1.936.394.853.592 1.888.592 3.104 0 1.195-.198 2.219-.592 3.072-.384.853-.928 1.504-1.632 1.952-.694.448-1.504.672-2.432.672-.928 0-1.744-.219-2.448-.656-.694-.437-1.238-1.083-1.632-1.936-.384-.853-.576-1.883-.576-3.088 0-1.184.192-2.208.576-3.072.394-.864.944-1.52 1.648-1.968.704-.459 1.514-.688 2.432-.688zm0 1.248c-.96 0-1.707.363-2.24 1.088-.534.725-.8 1.856-.8 3.392 0 1.525.266 2.645.8 3.36.544.715 1.29 1.072 2.24 1.072 2.026 0 3.04-1.483 3.04-4.448 0-2.976-1.014-4.464-3.04-4.464zm10.742 2.08c.96 0 1.722.347 2.288 1.04.576.693.864 1.637.864 2.832 0 1.333-.336 2.368-1.008 3.104-.672.736-1.574 1.104-2.704 1.104-1.131 0-2.038-.4-2.72-1.2-.672-.8-1.008-2.01-1.008-3.632 0-1.227.09-2.23.272-3.008.192-.79.517-1.435.976-1.936.469-.512 1.125-.912 1.968-1.2.629-.213 1.13-.405 1.504-.576.384-.17.773-.39 1.168-.656l.624 1.104c-.374.235-.763.453-1.168.656-.395.192-.87.379-1.424.56-.534.181-.955.39-1.264.624-.31.224-.56.555-.752.992-.182.427-.304 1.013-.368 1.76a3.3 3.3 0 011.152-1.152 3.085 3.085 0 011.6-.416zm-.56 6.896c.65 0 1.168-.219 1.552-.656.384-.448.576-1.221.576-2.32 0-.97-.16-1.67-.48-2.096-.31-.427-.763-.64-1.36-.64-.491 0-.95.133-1.376.4-.427.256-.779.65-1.056 1.184v1.024c0 .992.186 1.76.56 2.304.384.533.912.8 1.584.8zm10.017-7.632c1.078 0 1.867.384 2.368 1.152.502.768.752 1.85.752 3.248 0 1.323-.288 2.39-.864 3.2-.576.81-1.392 1.216-2.448 1.216-.938 0-1.674-.32-2.208-.96v4l-1.472.176v-11.84h1.264l.112 1.136c.31-.427.683-.752 1.12-.976a2.87 2.87 0 011.376-.352zm-.544 7.616c1.387 0 2.08-1.072 2.08-3.216 0-2.155-.634-3.232-1.904-3.232-.416 0-.794.123-1.136.368-.341.245-.64.56-.896.944v4.112c.214.33.48.587.8.768.32.17.672.256 1.056.256zm11.696-.96c0 .341.059.597.176.768.117.16.293.283.528.368l-.336 1.024c-.437-.053-.79-.176-1.056-.368-.267-.192-.464-.49-.592-.896-.565.843-1.403 1.264-2.512 1.264-.832 0-1.488-.235-1.968-.704-.48-.47-.72-1.083-.72-1.84 0-.896.32-1.584.96-2.064.65-.48 1.568-.72 2.752-.72h1.296v-.624c0-.597-.144-1.024-.432-1.28-.288-.256-.73-.384-1.328-.384-.619 0-1.376.15-2.272.448l-.368-1.072c1.045-.384 2.016-.576 2.912-.576.992 0 1.733.245 2.224.736.49.48.736 1.168.736 2.064v3.856zm-3.456 1.056c.843 0 1.504-.437 1.984-1.312V84.84h-1.104c-1.557 0-2.336.576-2.336 1.728 0 .501.123.88.368 1.136.245.256.608.384 1.088.384zm8.56-7.712c.532 0 1.028.09 1.487.272.47.17.843.427 1.12.768.288.341.432.752.432 1.232 0 .47-.139.853-.416 1.152-.266.299-.693.528-1.28.688.704.117 1.237.336 1.6.656s.544.779.544 1.376c0 .875-.341 1.541-1.024 2-.672.448-1.53.672-2.576.672-1.27 0-2.352-.352-3.248-1.056l.768-.912a4.38 4.38 0 001.12.592c.384.128.822.192 1.312.192 1.376 0 2.064-.501 2.064-1.504 0-.49-.197-.832-.592-1.024-.384-.203-.922-.304-1.616-.304h-1.12l.096-1.152h.864c.597 0 1.078-.107 1.44-.32.363-.213.544-.544.544-.992 0-.416-.154-.715-.464-.896-.31-.192-.715-.288-1.216-.288-.437 0-.826.059-1.168.176a3.91 3.91 0 00-1.008.512l-.704-.88c.427-.32.885-.56 1.376-.72.49-.16 1.046-.24 1.664-.24zm9.025 0c1.184 0 2.101.395 2.752 1.184.661.79.992 1.861.992 3.216 0 .875-.15 1.648-.448 2.32-.299.661-.731 1.179-1.296 1.552-.566.363-1.238.544-2.016.544-1.184 0-2.107-.395-2.768-1.184-.662-.79-.992-1.861-.992-3.216 0-.875.149-1.643.448-2.304.298-.672.73-1.19 1.296-1.552.565-.373 1.242-.56 2.032-.56zm0 1.184c-1.462 0-2.192 1.077-2.192 3.232 0 2.144.725 3.216 2.176 3.216 1.45 0 2.176-1.077 2.176-3.232 0-2.144-.72-3.216-2.16-3.216zm10.623 2.864c1.43.139 2.144.8 2.144 1.984 0 .885-.325 1.541-.976 1.968-.64.416-1.498.624-2.576.624h-3.04v-8.32a13.88 13.88 0 012.768-.304c1.046 0 1.872.197 2.48.592.608.395.912.96.912 1.696 0 .48-.144.87-.432 1.168-.288.299-.714.496-1.28.592zm-1.664-2.912c-.448 0-.885.032-1.312.096v2.384h1.584c.512 0 .907-.096 1.184-.288.278-.192.416-.517.416-.976 0-.427-.154-.736-.464-.928-.309-.192-.778-.288-1.408-.288zm.256 6.336c.63 0 1.12-.107 1.472-.32.352-.213.528-.597.528-1.152 0-.459-.149-.79-.448-.992-.298-.203-.805-.304-1.52-.304h-1.6v2.768h1.568zm11.515-.816c0 .341.059.597.176.768a1.1 1.1 0 00.528.368l-.336 1.024c-.437-.053-.789-.176-1.056-.368-.266-.192-.464-.49-.592-.896-.565.843-1.402 1.264-2.512 1.264-.832 0-1.488-.235-1.968-.704-.48-.47-.72-1.083-.72-1.84 0-.896.32-1.584.96-2.064.651-.48 1.568-.72 2.752-.72h1.296v-.624c0-.597-.144-1.024-.432-1.28-.288-.256-.73-.384-1.328-.384-.618 0-1.376.15-2.272.448l-.368-1.072c1.046-.384 2.016-.576 2.912-.576.992 0 1.734.245 2.224.736.491.48.736 1.168.736 2.064v3.856zm-3.456 1.056c.843 0 1.504-.437 1.984-1.312V84.84h-1.104c-1.557 0-2.336.576-2.336 1.728 0 .501.123.88.368 1.136.246.256.608.384 1.088.384zm11.456.912v-3.712h-3.504V89h-1.472v-8.432h1.472v3.536h3.504v-3.536h1.472V89h-1.472zm11.068 0h-1.456v-3.808c0-.64.021-1.248.064-1.824.043-.576.08-.955.112-1.136L118.475 89h-1.744v-8.432h1.456v3.808c0 .565-.021 1.152-.064 1.76a30.46 30.46 0 01-.096 1.152l3.488-6.72h1.776V89zm9.402-4.464c0 .245-.011.496-.032.752h-5.376c.064.928.298 1.61.704 2.048.405.437.928.656 1.568.656a3.43 3.43 0 001.12-.176 4.534 4.534 0 001.072-.56l.64.88c-.896.704-1.878 1.056-2.944 1.056-1.174 0-2.091-.384-2.752-1.152-.651-.768-.976-1.824-.976-3.168 0-.875.138-1.648.416-2.32.288-.683.693-1.216 1.216-1.6.533-.384 1.157-.576 1.872-.576 1.12 0 1.978.368 2.576 1.104.597.736.896 1.755.896 3.056zm-1.456-.432c0-.832-.166-1.467-.496-1.904-.331-.437-.827-.656-1.488-.656-1.206 0-1.862.885-1.968 2.656h3.952v-.096z" fill="#111238"></path>
    </g>
    <defs>
      <clipPath id="clip0">
        <path fill="#fff" transform="translate(71 35)" d="M0 0h24v24H0z"></path>
      </clipPath>
      <filter id="filter0_d" x="28" y="35" width="110" height="66" filterUnits="userSpaceOnUse" color-interpolation-filters="sRGB">
        <feFlood flood-opacity="0" result="BackgroundImageFix"></feFlood>
        <feColorMatrix in="SourceAlpha" values="0 0 0 0 0 0 0 0 0 0 0 0 0 0 0 0 0 0 127 0"></feColorMatrix>
        <feOffset dy="4"></feOffset>
        <feGaussianBlur stdDeviation="2"></feGaussianBlur>
        <feColorMatrix values="0 0 0 0 0 0 0 0 0 0 0 0 0 0 0 0 0 0 0.25 0"></feColorMatrix>
        <feBlend in2="BackgroundImageFix" result="effect1_dropShadow"></feBlend>
        <feBlend in="SourceGraphic" in2="effect1_dropShadow" result="shape"></feBlend>
      </filter>
    </defs>
  </symbol>
</svg>